<?xml version="1.0" standalone="no"?>
<!DOCTYPE svg PUBLIC "-//W3C//DTD SVG 20010904//EN"
 "http://www.w3.org/TR/2001/REC-SVG-20010904/DTD/svg10.dtd">
<svg version="1.0" xmlns="http://www.w3.org/2000/svg"
 width="1100.000000pt" height="804.000000pt" viewBox="0 0 1100.000000 804.000000"
 preserveAspectRatio="xMidYMid meet">

<g transform="translate(0.000000,804.000000) scale(0.100000,-0.100000)"
fill="#000000" stroke="none">
<path d="M4360 7100 c-13 -9 -13 -11 0 -20 8 -5 25 -10 38 -10 12 0 22 -3 22
-7 0 -5 2 -66 4 -136 3 -117 5 -130 26 -152 18 -19 34 -25 67 -25 57 0 57 23
1 36 l-43 9 -5 155 -5 155 -45 3 c-25 1 -52 -2 -60 -8z"/>
<path d="M3847 7074 c-4 -4 -4 -18 0 -32 7 -28 -9 -42 -49 -42 -16 0 -28 -4
-28 -9 0 -11 25 -21 56 -21 24 0 24 -1 24 -95 0 -89 1 -95 24 -110 26 -18 105
-17 108 0 0 6 -15 13 -33 16 -57 9 -59 13 -59 105 l0 84 38 0 c68 0 79 30 13
35 -14 1 -31 3 -38 3 -6 1 -13 17 -15 34 -3 31 -25 48 -41 32z"/>
<path d="M7517 7074 c-4 -4 -7 -20 -7 -36 0 -15 -3 -28 -7 -29 -5 0 -18 -2
-30 -3 -13 -2 -26 -6 -30 -10 -10 -10 17 -26 44 -26 20 0 21 -6 25 -91 3 -81
6 -93 27 -110 29 -24 111 -27 111 -4 0 10 -10 15 -28 15 -51 0 -61 17 -63 105
l-2 80 46 5 c25 3 49 9 53 13 9 8 -40 27 -71 27 -19 0 -24 6 -27 32 -3 31 -25
48 -41 32z"/>
<path d="M4121 6997 c-42 -21 -65 -62 -65 -115 0 -94 60 -148 149 -136 45 7
65 20 65 41 0 11 -6 13 -22 8 -62 -20 -96 -18 -122 9 -15 14 -26 37 -26 51 0
25 0 25 90 25 84 0 90 1 90 20 0 29 -26 76 -52 94 -27 19 -74 20 -107 3z m103
-49 c9 -12 16 -26 16 -30 0 -5 -31 -8 -70 -8 -38 0 -70 3 -70 8 0 4 7 18 16
30 11 16 25 22 54 22 29 0 43 -6 54 -22z"/>
<path d="M4682 6996 c-94 -52 -78 -209 24 -245 35 -12 47 -12 85 0 26 8 44 20
44 29 0 15 -6 15 -67 3 -48 -9 -78 5 -94 43 -8 19 -12 39 -9 44 4 6 47 10 96
10 l91 0 -8 32 c-18 84 -93 123 -162 84z m106 -43 c25 -34 15 -43 -53 -43 -74
0 -84 14 -38 50 30 24 69 20 91 -7z"/>
<path d="M4947 6999 c-64 -37 -62 -204 2 -239 25 -13 67 -13 92 0 16 9 19 7
19 -15 0 -27 -31 -65 -54 -65 -8 0 -27 5 -42 10 -37 14 -58 -5 -29 -26 28 -22
110 -13 137 14 11 11 24 39 29 63 11 61 11 257 -1 264 -5 3 -18 0 -29 -7 -16
-10 -23 -10 -33 0 -15 15 -66 15 -91 1z m97 -51 c10 -13 16 -44 16 -74 0 -45
-4 -56 -26 -73 -33 -26 -36 -26 -65 -2 -20 16 -24 28 -24 79 0 35 5 66 14 75
20 25 67 21 85 -5z"/>
<path d="M5247 7003 c-4 -3 -7 -62 -7 -130 0 -114 1 -123 19 -123 17 0 19 9
23 91 3 83 5 93 28 111 19 15 35 19 67 15 36 -4 43 -2 43 13 0 33 -69 41 -109
14 -22 -16 -24 -16 -33 0 -10 17 -20 20 -31 9z"/>
<path d="M5503 7000 c-13 -5 -23 -16 -23 -25 0 -13 7 -15 38 -8 71 14 112 1
112 -37 0 -14 -11 -18 -60 -22 -43 -3 -67 -10 -80 -24 -70 -70 12 -174 101
-130 24 12 35 13 45 5 8 -6 21 -9 29 -5 13 5 15 22 11 100 -5 105 -15 132 -52
146 -31 12 -91 12 -121 0z m127 -144 c0 -35 -37 -76 -69 -76 -35 0 -51 17 -51
52 0 33 23 46 83 47 32 1 37 -2 37 -23z"/>
<path d="M5746 7000 c-2 -3 -2 -59 -2 -125 1 -103 3 -120 18 -123 14 -3 17 11
20 102 3 111 14 140 42 117 11 -10 16 -39 18 -114 3 -88 5 -102 21 -105 15 -3
17 7 17 97 0 78 3 103 16 116 12 12 19 13 30 4 10 -8 14 -39 14 -115 0 -97 1
-104 20 -104 19 0 20 7 20 108 0 81 -4 113 -16 130 -16 24 -53 29 -71 11 -7
-7 -19 -8 -30 -3 -20 9 -113 12 -117 4z"/>
<path d="M6359 6982 c-49 -43 -56 -135 -15 -196 18 -29 82 -50 123 -40 57 12
63 16 63 36 0 17 -4 19 -22 13 -62 -20 -96 -18 -122 9 -15 14 -26 37 -26 51 0
25 0 25 91 25 l92 0 -6 38 c-14 85 -114 121 -178 64z m124 -34 c9 -11 17 -24
17 -29 0 -5 -31 -9 -70 -9 -38 0 -70 3 -70 6 0 16 24 46 43 54 29 11 58 3 80
-22z"/>
<path d="M6595 7001 c-3 -5 14 -63 38 -128 40 -113 43 -118 71 -118 27 0 30 5
72 120 26 72 40 123 34 129 -17 17 -38 -14 -65 -92 -26 -79 -41 -110 -48 -102
-2 3 -17 43 -32 90 -34 104 -52 130 -70 101z"/>
<path d="M6939 6996 c-58 -33 -77 -136 -36 -197 32 -49 88 -67 148 -48 44 14
64 47 24 41 -103 -18 -129 -11 -143 41 -5 17 -7 35 -5 40 2 4 42 7 88 7 46 0
86 4 89 8 9 15 -13 78 -34 97 -26 23 -98 29 -131 11z m109 -44 c26 -33 15 -42
-53 -42 -69 0 -82 12 -47 42 35 31 75 31 100 0z"/>
<path d="M7175 6998 c-3 -8 -4 -66 -3 -128 3 -96 6 -115 19 -118 13 -2 17 12
22 94 4 66 10 102 20 112 17 17 64 19 79 4 5 -5 12 -55 15 -111 5 -90 8 -101
24 -101 17 0 19 9 19 89 0 97 -12 146 -40 161 -26 14 -63 12 -85 -4 -16 -12
-22 -12 -42 1 -20 13 -24 13 -28 1z"/>
<path d="M7784 7000 c-28 -11 -35 -23 -36 -60 -1 -40 25 -67 72 -75 21 -4 46
-15 56 -26 16 -18 16 -20 -2 -40 -18 -20 -55 -23 -113 -8 -8 2 -16 -4 -19 -13
-2 -13 8 -20 40 -29 85 -23 165 33 142 100 -7 20 -23 31 -69 46 -47 16 -61 25
-63 43 -5 32 35 48 79 33 23 -8 36 -8 43 0 29 28 -75 52 -130 29z"/>
<path d="M5888 6558 c-3 -7 1 -40 9 -73 16 -72 38 -407 29 -432 -6 -14 -14
-10 -46 27 -38 44 -40 44 -55 25 -19 -24 -20 -20 37 -93 60 -77 92 -87 146
-44 20 16 61 41 90 56 47 24 68 46 42 46 -22 0 -84 -31 -130 -65 l-47 -34 -6
217 c-5 151 -12 241 -24 296 -17 74 -35 104 -45 74z"/>
<path d="M4864 6508 c-4 -7 0 -16 11 -22 10 -6 38 -26 62 -44 24 -18 48 -30
54 -27 5 4 8 3 7 -2 -2 -4 31 -42 73 -83 41 -41 93 -102 114 -135 72 -114 90
-138 107 -149 29 -18 21 -26 -25 -26 -40 0 -89 -21 -77 -34 3 -3 48 -6 99 -7
115 -2 128 8 105 73 -8 22 -14 55 -14 72 0 17 -5 38 -10 46 -16 23 -40 -15
-40 -63 0 -52 -12 -42 -78 67 -59 97 -198 250 -219 242 -8 -3 -11 -2 -8 3 6
11 -84 83 -95 76 -4 -3 -10 2 -14 10 -6 18 -42 20 -52 3z"/>
<path d="M6883 6447 c-48 -41 -106 -94 -128 -118 -39 -42 -223 -285 -260 -341
-9 -16 -21 -28 -26 -28 -4 0 -11 27 -15 60 -7 62 -16 73 -34 41 -21 -41 0
-175 31 -194 12 -8 37 -5 90 11 41 12 90 22 109 22 35 0 60 14 60 33 0 14
-115 1 -178 -19 -29 -9 -55 -14 -58 -11 -7 7 29 61 138 207 130 174 178 228
273 308 49 41 94 81 98 88 18 31 -17 10 -100 -59z"/>
<path d="M4986 5810 c-70 -22 -106 -82 -106 -180 0 -120 42 -175 140 -187 47
-5 54 -10 78 -47 105 -165 171 -385 203 -671 6 -60 13 -111 14 -113 2 -2 146
-30 410 -78 139 -25 193 -40 183 -50 -3 -2 -276 -11 -607 -19 -588 -15 -604
-15 -642 -37 -47 -26 -79 -86 -79 -147 l0 -42 -117 3 c-110 3 -120 1 -151 -20
-62 -45 -70 -81 -72 -334 0 -5 -42 -8 -94 -8 l-94 0 -3 123 c-4 107 -7 127
-27 160 -13 21 -37 44 -52 52 -66 34 -167 6 -205 -57 -19 -32 -20 -51 -20
-613 0 -642 1 -659 66 -795 59 -126 135 -212 260 -298 63 -43 95 -83 116 -145
14 -44 17 -112 22 -432 6 -350 7 -382 25 -408 48 -70 124 -92 196 -55 77 40
84 64 88 273 5 255 -12 595 -33 675 -40 151 -110 249 -244 343 -85 60 -139
124 -167 202 -17 44 -19 88 -22 363 l-3 312 95 0 96 0 1 -92 c1 -142 8 -178
43 -216 42 -46 71 -54 185 -51 l106 4 6 -60 c7 -73 18 -96 65 -132 36 -27 38
-27 248 -34 116 -4 283 -8 372 -8 89 -1 189 -4 222 -7 l62 -7 -6 -71 c-2 -39
-16 -384 -30 -766 -28 -770 -25 -743 -97 -807 -39 -34 -119 -57 -184 -51 l-38
3 -6 68 c-4 52 -11 73 -29 92 -42 44 -105 51 -158 17 -33 -21 -45 -49 -51
-117 l-6 -60 -75 -6 c-81 -6 -119 -21 -164 -65 -85 -86 -84 -223 2 -307 73
-72 -7 -67 1184 -67 1019 0 1075 1 1113 19 86 39 129 106 130 201 0 54 -5 73
-28 113 -16 26 -47 60 -70 75 -36 23 -54 27 -133 30 l-92 4 -4 64 c-5 76 -28
113 -81 131 -29 10 -45 10 -74 0 -52 -17 -77 -56 -83 -130 l-5 -62 -85 0
c-109 1 -132 8 -182 53 -74 67 -71 45 -94 692 -8 239 -19 545 -24 680 -5 135
-6 248 -2 251 4 4 201 2 437 -5 l430 -11 5 -70 c6 -83 28 -124 80 -154 35 -20
53 -21 282 -21 238 0 246 1 278 22 18 13 43 36 54 51 21 28 21 30 21 962 0
932 0 934 -21 962 -11 15 -36 38 -54 51 -32 21 -40 22 -277 22 -220 0 -247 -2
-281 -19 -56 -28 -82 -83 -82 -168 l0 -70 -127 -7 c-104 -5 -343 -9 -400 -7
-18 1 -17 93 3 249 34 282 103 505 201 654 22 32 31 38 60 38 50 0 100 27 129
69 20 30 24 47 24 114 0 95 -17 137 -69 169 l-36 23 -910 2 c-500 1 -923 -2
-939 -7z m194 -1991 c0 -77 5 -149 10 -160 7 -12 21 -19 40 -19 32 0 48 -16
32 -32 -13 -13 -71 -3 -98 16 -17 13 -20 31 -24 158 l-5 143 -32 3 c-21 2 -33
9 -33 18 0 10 14 14 55 14 l55 0 0 -141z m1145 111 c0 -16 -6 -26 -17 -28 -14
-3 -18 3 -18 28 0 25 4 31 18 28 11 -2 17 -12 17 -28z m625 -144 c0 -177 -5
-201 -36 -175 -11 9 -18 9 -26 1 -16 -16 -79 -15 -100 2 -24 18 -48 78 -48
121 0 46 23 101 48 114 26 14 89 14 97 1 15 -25 25 -5 25 50 0 53 2 60 20 60
19 0 20 -7 20 -174z m-2350 110 c0 -34 1 -35 47 -38 64 -4 69 -26 6 -30 l-48
-3 -3 -72 c-4 -90 6 -111 56 -115 25 -2 37 -8 37 -18 0 -12 -11 -15 -49 -13
-71 2 -80 16 -86 126 l-5 92 -33 3 c-42 4 -37 26 6 30 29 3 32 6 32 38 0 27 4
34 20 34 16 0 20 -7 20 -34z m350 -55 c25 -18 55 -85 44 -102 -3 -5 -43 -9
-89 -9 -46 0 -86 -4 -89 -9 -10 -16 12 -59 40 -77 23 -15 32 -16 72 -5 31 8
48 9 56 1 32 -32 -97 -54 -152 -26 -91 47 -79 210 18 243 39 13 64 9 100 -16z
m809 5 c11 -8 15 -8 18 2 3 6 14 12 25 12 19 0 19 -6 16 -149 -3 -141 -4 -151
-27 -175 -39 -42 -151 -43 -151 -2 0 12 11 13 53 9 59 -6 70 1 82 56 l7 35
-25 -17 c-93 -61 -183 67 -132 189 22 54 90 74 134 40z m1779 -16 c3 -19 1
-21 -15 -15 -32 15 -74 9 -96 -14 -19 -18 -23 -35 -26 -112 -3 -77 -5 -90 -20
-87 -14 3 -16 22 -19 131 -2 122 -2 127 18 127 11 0 20 -7 20 -15 0 -19 14
-19 30 -1 26 33 103 23 108 -14z m-2019 9 c24 -23 41 -59 41 -90 0 -17 -8 -19
-90 -19 -88 0 -90 0 -90 -24 0 -58 55 -83 138 -62 26 6 32 5 32 -8 0 -36 -104
-50 -160 -21 -56 29 -75 141 -34 199 34 49 123 62 163 25z m474 3 c-4 -17 12
-15 27 3 19 23 97 20 109 -4 13 -24 4 -33 -21 -20 -11 6 -32 8 -48 4 -49 -11
-60 -33 -63 -131 -2 -81 -4 -89 -22 -89 -19 0 -20 8 -23 114 -1 63 0 121 3
129 6 16 41 11 38 -6z m339 -94 l3 -113 33 -1 c38 -1 50 -10 35 -25 -6 -6 -49
-9 -104 -7 -76 2 -94 6 -94 18 0 10 10 15 30 16 57 1 55 -2 53 97 l-3 92 -32
3 c-32 3 -40 11 -26 25 3 4 28 7 54 7 l48 0 3 -112z m186 100 c9 -9 15 -9 24
0 19 19 85 15 107 -7 21 -21 35 -113 29 -191 -3 -37 -7 -45 -23 -45 -18 0 -20
9 -25 103 -4 76 -9 105 -20 112 -26 16 -48 11 -69 -16 -18 -23 -21 -41 -21
-116 0 -80 -2 -89 -17 -86 -16 3 -18 19 -21 131 -2 100 0 127 11 127 7 0 18
-5 25 -12z m697 -10 c24 -22 49 -90 37 -102 -3 -4 -46 -6 -95 -6 l-89 0 7 -27
c14 -60 62 -79 143 -59 33 8 39 2 23 -23 -12 -18 -107 -26 -143 -12 -81 31
-91 183 -16 235 34 24 102 20 133 -6z"/>
<path d="M6806 3808 c-24 -34 -21 -133 4 -158 22 -22 33 -24 59 -10 29 15 44
64 37 115 -11 69 -68 99 -100 53z"/>
<path d="M4839 3809 c-32 -32 -19 -44 49 -47 69 -3 80 10 42 48 -26 26 -64 26
-91 -1z"/>
<path d="M5676 3808 c-23 -33 -21 -130 2 -151 27 -25 69 -22 84 6 19 36 16
121 -6 146 -25 27 -61 27 -80 -1z"/>
<path d="M5404 3805 c-14 -14 -22 -30 -19 -35 8 -12 122 -13 129 -1 3 5 -4 20
-15 35 -26 33 -62 34 -95 1z"/>
<path d="M7099 3812 c-39 -32 -20 -52 51 -52 53 0 60 2 60 19 0 24 -36 51 -66
51 -12 0 -32 -8 -45 -18z"/>
<path d="M8463 4879 c-46 -13 -64 -47 -74 -137 -16 -146 -67 -250 -171 -351
-56 -55 -181 -124 -253 -139 l-40 -8 -3 -102 c-2 -80 0 -102 11 -102 28 0 174
42 224 65 201 91 363 282 417 492 22 83 30 193 17 225 -18 47 -74 72 -128 57z"/>
<path d="M8805 4883 c-11 -3 -32 -16 -47 -30 -23 -22 -27 -36 -33 -102 -28
-342 -202 -602 -500 -747 -83 -40 -230 -84 -282 -84 -22 0 -23 -3 -23 -100 l0
-100 44 0 c61 0 219 42 316 84 252 109 471 333 575 587 65 160 96 395 59 448
-14 19 -75 54 -86 50 -2 -1 -12 -3 -23 -6z"/>
<path d="M9123 4875 c-46 -20 -60 -50 -68 -145 -25 -325 -141 -578 -365 -794
-200 -193 -426 -299 -722 -341 l-48 -6 0 -101 0 -100 68 7 c388 39 760 250
998 564 78 102 193 331 224 445 31 113 50 238 50 333 0 76 -2 85 -27 112 -34
36 -68 44 -110 26z"/>
<path d="M9469 4882 c-15 -2 -37 -14 -49 -27 -20 -21 -24 -43 -36 -167 -21
-231 -63 -390 -150 -563 -153 -303 -397 -546 -703 -699 -145 -74 -377 -139
-536 -153 l-75 -6 0 -97 c0 -53 2 -99 5 -101 8 -8 175 11 276 31 146 30 270
74 426 150 427 211 744 574 886 1015 61 188 101 476 77 549 -16 50 -62 75
-121 68z"/>
<path d="M9739 4431 c-15 -50 -6 -84 25 -100 34 -19 52 -9 84 43 28 47 40 54
60 34 16 -16 15 -50 -3 -74 -20 -26 -19 -34 5 -34 14 0 23 11 31 41 15 49 4
89 -31 106 -32 16 -57 1 -85 -51 -26 -47 -61 -48 -59 -1 1 17 5 40 9 53 6 16
3 22 -8 22 -10 0 -21 -15 -28 -39z"/>
<path d="M9699 4235 c-12 -33 -15 -35 -47 -29 -27 5 -34 4 -30 -7 2 -8 14 -18
26 -24 14 -6 22 -20 25 -45 l3 -35 14 31 13 31 71 -19 c38 -10 77 -16 86 -13
17 5 34 32 45 73 10 34 -19 28 -32 -8 -13 -34 -32 -37 -103 -16 -45 14 -45 14
-42 55 3 50 -12 53 -29 6z"/>
<path d="M9630 4028 c-27 -44 -26 -83 2 -102 34 -24 50 -20 93 24 31 32 42 37
57 29 24 -13 23 -40 -2 -72 -29 -37 -25 -60 7 -39 14 9 43 74 43 97 0 22 -37
55 -62 55 -15 0 -37 -15 -60 -42 -35 -41 -38 -42 -54 -26 -17 17 -17 20 -1 53
20 43 21 49 8 53 -6 2 -20 -11 -31 -30z"/>
<path d="M3455 3849 c-13 -25 -16 -53 -13 -131 4 -123 16 -138 109 -138 l59 0
0 140 c0 77 1 143 3 148 1 4 -30 8 -70 10 -72 3 -72 3 -88 -29z"/>
<path d="M9559 3855 c-31 -16 -50 -62 -42 -97 17 -70 116 -111 172 -72 23 17
51 70 51 99 0 30 -28 14 -34 -20 -8 -43 -45 -70 -81 -61 -32 8 -32 17 7 84 30
53 30 56 13 68 -24 18 -53 17 -86 -1z m61 -24 c0 -8 -35 -76 -48 -91 -4 -5
-32 30 -32 41 0 3 9 18 21 33 20 25 59 36 59 17z"/>
<path d="M9450 3687 c0 -8 27 -35 60 -60 61 -48 68 -63 50 -98 -16 -29 -36
-24 -106 27 -58 41 -84 48 -84 24 0 -12 120 -96 147 -103 28 -6 73 26 73 53 0
9 10 24 22 32 22 15 21 16 -61 76 -86 64 -101 71 -101 49z"/>
<path d="M9330 3516 c0 -8 -9 -18 -21 -21 -11 -4 -27 -21 -36 -39 -14 -30 -14
-36 2 -70 20 -41 60 -73 102 -82 33 -7 80 24 85 56 3 19 6 18 41 -10 32 -27
38 -29 43 -15 4 9 3 20 -2 24 -5 4 -50 44 -100 89 -90 81 -114 95 -114 68z
m56 -62 c61 -40 64 -114 5 -114 -21 0 -39 11 -65 40 -21 24 -34 46 -30 53 24
42 48 48 90 21z"/>
<path d="M9147 3349 c-32 -19 -49 -66 -37 -103 13 -40 56 -82 91 -91 34 -8 81
15 109 55 32 46 13 58 -25 16 -36 -40 -82 -48 -106 -20 -12 14 -6 23 41 65
l55 49 -24 20 c-25 21 -75 26 -104 9z m77 -28 c6 -8 -64 -71 -78 -71 -11 0 -6
56 6 68 14 14 64 16 72 3z"/>
<path d="M9019 3247 c-9 -7 -21 -22 -28 -35 -9 -16 -18 -21 -32 -17 -11 4 -19
2 -19 -5 0 -21 102 -170 116 -170 21 0 17 21 -11 62 -41 61 -48 87 -30 115 9
13 27 28 41 33 14 6 22 14 19 20 -8 14 -36 12 -56 -3z"/>
<path d="M8587 3104 c-9 -10 4 -34 19 -34 8 0 14 9 14 20 0 19 -19 27 -33 14z"/>
<path d="M8583 3020 c-33 -14 -29 -34 5 -27 26 5 29 3 50 -58 12 -35 22 -68
22 -73 0 -6 -13 -15 -30 -21 -29 -10 -42 -31 -19 -31 6 0 44 12 85 26 79 28
99 50 37 40 l-38 -7 -26 78 c-27 82 -39 92 -86 73z"/>
<path d="M8395 2970 c-4 -7 -18 -9 -31 -6 -13 4 -24 2 -24 -3 0 -6 12 -71 26
-146 20 -103 30 -135 42 -135 12 0 14 9 9 48 l-6 48 33 -4 c21 -2 40 3 56 16
21 17 25 28 24 76 0 75 -25 110 -82 114 -22 2 -43 -2 -47 -8z m85 -50 c14 -26
13 -93 -2 -108 -24 -24 -58 -14 -74 23 -21 50 -18 91 8 109 24 17 51 8 68 -24z"/>
<path d="M8163 2950 c-13 -5 -23 -17 -23 -26 0 -12 5 -14 18 -9 34 15 72 17
87 5 25 -21 18 -40 -15 -40 -44 0 -89 -26 -96 -56 -15 -59 37 -98 100 -76 17
6 41 9 52 6 21 -5 21 -3 16 68 -2 40 -9 83 -13 96 -14 36 -76 52 -126 32z
m101 -127 c-8 -34 -30 -53 -60 -53 -26 0 -44 24 -37 51 6 20 21 26 71 28 30 1
32 -1 26 -26z"/>
<path d="M1917 2614 c-4 -4 -7 -20 -7 -35 0 -23 -5 -28 -36 -33 -43 -9 -41
-30 3 -34 l31 -3 4 -89 c3 -102 12 -116 73 -125 46 -7 80 8 55 25 -8 5 -27 10
-42 10 -37 0 -48 25 -48 109 l0 71 38 0 c20 0 44 5 52 10 13 9 13 11 0 20 -8
5 -23 7 -32 4 -33 -10 -57 5 -60 38 -3 31 -17 45 -31 32z"/>
<path d="M518 2532 c-76 -47 -74 -188 3 -227 34 -18 98 -19 134 -3 31 14 27
34 -6 30 -100 -12 -139 5 -139 60 l0 28 84 0 c47 0 87 4 91 9 3 5 -2 28 -11
51 -26 65 -97 89 -156 52z m106 -38 c33 -32 20 -44 -49 -44 -69 0 -79 8 -48
42 20 22 76 24 97 2z"/>
<path d="M773 2540 c-13 -5 -23 -15 -23 -23 0 -10 17 -13 68 -13 66 1 67 1 70
-26 3 -27 2 -28 -42 -28 -56 0 -91 -15 -105 -47 -17 -37 -13 -62 14 -88 27
-28 91 -35 113 -13 10 10 17 10 33 -1 34 -21 41 -1 37 103 -3 82 -6 99 -25
117 -24 25 -103 35 -140 19z m119 -150 c-3 -29 -45 -70 -72 -70 -25 0 -53 42
-44 64 9 23 41 36 84 33 31 -2 35 -5 32 -27z"/>
<path d="M1055 2525 c-49 -48 -25 -95 63 -124 35 -12 48 -22 50 -38 6 -39 -56
-52 -124 -26 -22 8 -17 -25 5 -37 11 -5 40 -10 64 -10 59 0 97 29 97 74 0 40
-21 60 -76 75 -23 6 -47 18 -54 27 -27 32 34 58 99 42 25 -6 24 29 -1 36 -51
13 -98 6 -123 -19z"/>
<path d="M1296 2542 c-3 -5 15 -61 41 -124 53 -134 53 -161 -2 -184 -46 -19
-45 -36 2 -32 48 4 62 24 124 183 28 72 53 136 56 143 3 7 -3 12 -18 12 -18 0
-27 -8 -35 -32 -7 -18 -20 -57 -30 -85 -10 -29 -23 -53 -29 -53 -5 0 -23 36
-39 80 -26 74 -57 113 -70 92z"/>
<path d="M2164 2516 c-31 -31 -34 -40 -34 -90 0 -62 19 -109 49 -126 26 -13
74 -13 105 1 77 36 73 211 -6 238 -52 18 -78 13 -114 -23z m126 -53 c13 -38
13 -48 0 -85 -20 -56 -59 -73 -93 -40 -18 18 -22 34 -22 81 0 72 15 93 64 89
32 -3 37 -7 51 -45z"/>
<path d="M2697 2544 c-4 -4 -7 -51 -7 -104 0 -83 3 -101 21 -124 22 -28 64
-35 100 -15 15 8 24 7 35 -2 28 -23 35 5 32 127 -2 98 -6 119 -18 119 -12 0
-16 -19 -20 -93 -4 -83 -8 -96 -29 -113 -28 -23 -32 -23 -57 -5 -16 12 -20 30
-24 112 -5 89 -14 117 -33 98z"/>
<path d="M3008 2535 c-23 -13 -28 -22 -28 -55 0 -44 21 -65 78 -76 17 -3 38
-14 46 -23 14 -15 14 -19 -1 -40 -16 -24 -39 -24 -110 -5 -17 5 -23 2 -23 -9
0 -24 32 -37 88 -37 59 0 89 21 98 66 7 38 -19 70 -63 79 -52 12 -73 24 -73
45 0 28 44 44 84 30 20 -7 33 -7 40 0 31 31 -88 52 -136 25z"/>
<path d="M3295 2541 c-76 -31 -94 -161 -30 -221 43 -41 175 -37 175 6 0 13 -6
14 -32 8 -83 -21 -138 4 -138 62 0 24 2 24 91 24 l91 0 -8 32 c-17 80 -79 117
-149 89z m93 -44 c6 -5 12 -18 12 -28 0 -17 -8 -19 -65 -19 -36 0 -65 3 -65 6
0 3 5 14 11 25 18 35 72 43 107 16z"/>
<path d="M3924 2076 c-24 -24 -34 -43 -34 -65 0 -20 -10 -42 -29 -63 -28 -32
-32 -33 -103 -32 -43 1 -115 12 -175 28 -107 27 -211 34 -260 15 -33 -12 -90
-64 -108 -99 -38 -74 -21 -181 37 -237 71 -69 154 -79 313 -38 233 61 325 39
325 -77 0 -43 56 -98 102 -98 18 0 44 7 57 16 46 33 51 65 51 336 0 221 -2
257 -18 288 -34 68 -104 80 -158 26z"/>
<path d="M2910 1961 c-8 -16 -2 -32 36 -87 l46 -67 -179 6 c-98 4 -190 9 -205
13 -20 5 -28 2 -28 -7 0 -32 42 -41 226 -48 101 -4 186 -9 189 -13 3 -3 -10
-31 -30 -63 -32 -53 -43 -85 -30 -85 3 0 17 19 31 43 15 23 49 66 76 95 53 56
53 61 5 101 -16 13 -47 48 -68 78 -43 58 -53 63 -69 34z"/>
</g>
</svg>
